<?xml version="1.0" encoding="utf-8"?>
<!-- Generator: Adobe Illustrator 19.2.1, SVG Export Plug-In . SVG Version: 6.00 Build 0)  -->
<svg version="1.1" id="Layer_1" xmlns="http://www.w3.org/2000/svg" xmlns:xlink="http://www.w3.org/1999/xlink" x="0px" y="0px"
	 viewBox="0 0 126.7 126.5" style="enable-background:new 0 0 126.7 126.5;" xml:space="preserve">
<style type="text/css">
	.st0{fill:none;stroke:#00A551;stroke-width:6;stroke-miterlimit:10;}
</style>
<g>
	<path class="st0" d="M27.1,24.5l5-3.5c1.4-1,3.3-0.6,4.3,0.8l53.1,75.8c1,1.4,0.6,3.3-0.8,4.3l-5,3.5c-1.4,1-3.3,0.6-4.3-0.8
		L26.3,28.9C25.3,27.5,25.7,25.5,27.1,24.5z"/>
	<path class="st0" d="M44,53.6c-8.3,5.8-2.5,14.2-2.5,14.2l-0.6,0.4c-9.8,6.9-23.3,4.5-30.1-5.3l-0.2-0.2
		c-6.9-9.8-4.5-23.3,5.3-30.1l0,0c6.1,8.7,14.9,2.6,14.9,2.6"/>
	<path class="st0" d="M70.9,71l29.5-42.1c1-1.4,0.6-3.3-0.8-4.3l-5-3.5c-1.4-1-3.3-0.6-4.3,0.8l-27,38.5"/>
	<path class="st0" d="M55.9,71L37.2,97.6c-1,1.4-0.6,3.3,0.8,4.3l5,3.5c1.4,1,3.3,0.6,4.3-0.8l16.1-22.9"/>
	<path class="st0" d="M82.7,53.6c8.3,5.8,2.5,14.2,2.5,14.2l0.6,0.4c9.8,6.9,23.3,4.5,30.1-5.3l0.2-0.2c6.9-9.8,4.5-23.3-5.3-30.1
		l0,0c-6.1,8.7-14.9,2.6-14.9,2.6"/>
</g>
</svg>
