<?xml version="1.0" encoding="utf-8"?>
<!-- Generator: Adobe Illustrator 19.2.1, SVG Export Plug-In . SVG Version: 6.00 Build 0)  -->
<svg version="1.1" id="Layer_1" xmlns="http://www.w3.org/2000/svg" xmlns:xlink="http://www.w3.org/1999/xlink" x="0px" y="0px"
	 viewBox="0 0 126.7 126.5" style="enable-background:new 0 0 126.7 126.5;" xml:space="preserve">
<style type="text/css">
	.st0{fill:none;stroke:#00A551;stroke-width:6;stroke-miterlimit:10;}
	.st1{fill:#00A551;}
</style>
<g>
	<path class="st0" d="M97.5,108.1H30.2c-4.5,0-8.2-3.7-8.2-8.2V27.2c0-4.5,3.7-8.2,8.2-8.2h67.2c4.5,0,8.2,3.7,8.2,8.2v72.6
		C105.7,104.4,102,108.1,97.5,108.1z"/>
	<g>
		<path class="st1" d="M61.6,54.9l-3.7,4.4c-1.7-2-4.1-3.3-6.3-3.3c-4,0-7,3.2-7,7.3c0,4.2,3,7.4,7,7.4c2.1,0,4.6-1.2,6.3-3l3.7,4
			c-2.7,2.8-6.7,4.6-10.4,4.6c-7.6,0-13.2-5.6-13.2-13c0-7.3,5.8-12.7,13.5-12.7C55.2,50.7,59.1,52.4,61.6,54.9z"/>
		<path class="st1" d="M89.7,63.5c0,7.3-5.8,12.9-13.6,12.9c-7.8,0-13.6-5.5-13.6-12.9c0-7.3,5.8-12.8,13.6-12.8
			C83.9,50.7,89.7,56.2,89.7,63.5z M69,63.5c0,4.2,3.3,7.5,7.1,7.5c3.9,0,7-3.3,7-7.5c0-4.2-3.1-7.5-7-7.5S69,59.3,69,63.5z"/>
	</g>
	<path class="st1" d="M93.2,76c0,0.8-0.6,1.6-1.4,2.4l-1.5,1.6h3.1v1.5h-5.5v-1.2l2.6-2.8c0.4-0.4,0.7-0.9,0.7-1.3
		c0-0.4-0.3-0.7-0.8-0.7c-0.6,0-1.3,0.4-2,0.9l-0.7-1.3c0.9-0.7,1.9-1.1,3-1.1C92.1,74.1,93.2,74.9,93.2,76z"/>
</g>
</svg>
