<?xml version="1.0" encoding="utf-8"?>
<!-- Generator: Adobe Illustrator 19.2.1, SVG Export Plug-In . SVG Version: 6.00 Build 0)  -->
<svg version="1.1" id="Layer_1" xmlns="http://www.w3.org/2000/svg" xmlns:xlink="http://www.w3.org/1999/xlink" x="0px" y="0px"
	 viewBox="0 0 53 40.7" style="enable-background:new 0 0 53 40.7;" xml:space="preserve">
<style type="text/css">
	.st0{fill:none;stroke:#00A651;stroke-width:3;stroke-miterlimit:10;}
</style>
<g>
	<path class="st0" d="M10.5,3.3l2.2-1.5c0.6-0.4,1.5-0.3,1.9,0.3L38,35.5c0.4,0.6,0.3,1.5-0.3,1.9L35.5,39c-0.6,0.4-1.5,0.3-1.9-0.3
		L10.2,5.2C9.7,4.6,9.9,3.7,10.5,3.3z"/>
	<path class="st0" d="M18,16.1c-3.7,2.6-1.1,6.3-1.1,6.3l-0.3,0.2c-4.3,3-10.3,2-13.3-2.3l-0.1-0.1c-3-4.3-2-10.3,2.3-13.3l0,0
		C8.2,10.7,12.1,8,12.1,8"/>
	<path class="st0" d="M29.8,23.8l13-18.6c0.4-0.6,0.3-1.5-0.3-1.9l-2.2-1.5c-0.6-0.4-1.5-0.3-1.9,0.3l-11.9,17"/>
	<path class="st0" d="M23.2,23.8L15,35.5c-0.4,0.6-0.3,1.5,0.3,1.9l2.2,1.5c0.6,0.4,1.5,0.3,1.9-0.3l7.1-10.1"/>
	<path class="st0" d="M35,16.1c3.7,2.6,1.1,6.3,1.1,6.3l0.3,0.2c4.3,3,10.3,2,13.3-2.3l0.1-0.1c3-4.3,2-10.3-2.3-13.3l0,0
		C44.8,10.7,40.9,8,40.9,8"/>
</g>
</svg>
