<?xml version="1.0" encoding="utf-8"?>
<!-- Generator: Adobe Illustrator 19.2.1, SVG Export Plug-In . SVG Version: 6.00 Build 0)  -->
<svg version="1.1" id="Layer_1" xmlns="http://www.w3.org/2000/svg" xmlns:xlink="http://www.w3.org/1999/xlink" x="0px" y="0px"
	 viewBox="0 0 49.4 52.4" style="enable-background:new 0 0 49.4 52.4;" xml:space="preserve">
<style type="text/css">
	.st0{fill:#8DC63F;}
</style>
<g>
	<g>
		<path class="st0" d="M39.2,52.4h-29C4.6,52.4,0,47.8,0,42.2V10.2C0,4.6,4.6,0,10.2,0h29c5.6,0,10.2,4.6,10.2,10.2v31.9
			C49.4,47.8,44.9,52.4,39.2,52.4z M10.2,4C6.8,4,4,6.8,4,10.2v31.9c0,3.4,2.8,6.2,6.2,6.2h29c3.4,0,6.2-2.8,6.2-6.2V10.2
			c0-3.4-2.8-6.2-6.2-6.2H10.2z"/>
		<g>
			<path class="st0" d="M23.5,21.5l-2,2.4c-0.9-1.1-2.2-1.8-3.4-1.8c-2.2,0-3.8,1.7-3.8,4c0,2.3,1.6,4,3.8,4c1.2,0,2.5-0.6,3.4-1.6
				l2,2.2c-1.5,1.5-3.6,2.5-5.6,2.5c-4.1,0-7.2-3-7.2-7c0-3.9,3.1-6.9,7.3-6.9C20,19.2,22.1,20.1,23.5,21.5z"/>
			<path class="st0" d="M38.8,26.2c0,4-3.2,7-7.4,7c-4.2,0-7.4-3-7.4-7c0-4,3.2-6.9,7.4-6.9C35.6,19.2,38.8,22.2,38.8,26.2z
				 M27.5,26.2c0,2.3,1.8,4.1,3.9,4.1c2.1,0,3.8-1.8,3.8-4.1c0-2.3-1.7-4-3.8-4S27.5,23.9,27.5,26.2z"/>
		</g>
		<path class="st0" d="M40.6,33c0,0.4-0.3,0.9-0.8,1.3l-0.8,0.9h1.7V36h-3v-0.7l1.4-1.5c0.2-0.2,0.4-0.5,0.4-0.7
			c0-0.2-0.2-0.4-0.5-0.4c-0.3,0-0.7,0.2-1.1,0.5l-0.4-0.7c0.5-0.4,1-0.6,1.6-0.6C40.1,31.9,40.6,32.3,40.6,33z"/>
	</g>
</g>
</svg>
