<?xml version="1.0" encoding="utf-8"?>
<!-- Generator: Adobe Illustrator 19.2.1, SVG Export Plug-In . SVG Version: 6.00 Build 0)  -->
<svg version="1.1" id="Layer_1" xmlns="http://www.w3.org/2000/svg" xmlns:xlink="http://www.w3.org/1999/xlink" x="0px" y="0px"
	 viewBox="0 0 126.7 126.5" style="enable-background:new 0 0 126.7 126.5;" xml:space="preserve">
<style type="text/css">
	.st0{fill:none;stroke:#00A651;stroke-width:6;stroke-miterlimit:10;}
</style>
<g>
	<path class="st0" d="M43.7,13.8L28.5,29c0,0,0,0.1,0,0.1v17.3c0,0,0,0.1,0,0.1l17.3,17.3c0,0,0.1,0,0.1,0h8.6c0.1,0,0.1,0,0.1,0.1
		l8.6,16.7c0,0,0,0,0,0.1v25.8c0,0,0,0.1,0,0.1l8.8,8.8c0,0,0,0.1,0,0.1v7.9c0,0.1,0.2,0.2,0.3,0.1l16.6-16.6c0.1-0.1,0-0.3-0.1-0.3
		h-8.1c-0.1,0-0.2-0.1-0.2-0.2v-8.5c0,0,0-0.1,0-0.1l8.4-8.4c0,0,0-0.1,0-0.1V72.2c0,0,0-0.1,0-0.1l8.7-8.7c0,0,0-0.1,0-0.1V55
		c0-0.1,0.1-0.2,0.2-0.2h17c0,0,0.1,0,0.1,0l5.1-5.1c2.3-2.3,3.6-5.4,3.6-8.7v-7.1c0-3.3-1.3-6.4-3.6-8.7l-5.1-5.1c0,0-0.1,0-0.1,0
		H97.4H91c-1.2,0-2.3-0.5-3.1-1.3l-5.1-5.1c-1.4-1.4-3.3-2.2-5.3-2.2L49,11.6C47,11.6,45.1,12.4,43.7,13.8z"/>
	<path class="st0" d="M37.3,20.2l-8.7-8.7c0,0-0.1,0-0.1,0h-8.2c-0.1,0-0.2-0.1-0.2-0.2V3.2C20.1,3.1,20,3,19.9,3H3.2
		C3.1,3,3,3.1,3,3.2v8.4c0,0,0,0.1,0,0.1l8.5,8.5c0,0,0.1,0,0.1,0L37.3,20.2"/>
</g>
</svg>
