<?xml version="1.0" encoding="utf-8"?>
<!-- Generator: Adobe Illustrator 19.2.1, SVG Export Plug-In . SVG Version: 6.00 Build 0)  -->
<svg version="1.1" id="Layer_1" xmlns="http://www.w3.org/2000/svg" xmlns:xlink="http://www.w3.org/1999/xlink" x="0px" y="0px"
	 viewBox="0 0 50 51" style="enable-background:new 0 0 50 51;" xml:space="preserve">
<style type="text/css">
	.st0{fill:#1B5A41;}
</style>
<path class="st0" d="M48.1,9.3l-2-2l-0.5-0.5h-9.9c0,0,0,0-0.1,0l-2-2c-0.8-0.9-2-1.4-3.2-1.4c0,0,0,0,0,0l-11,0
	c-1.2,0-2.3,0.5-3.2,1.4l-1.3,1.4l-2.2-2.3l-0.5-0.5H9.9V1.7c0-1-0.8-1.7-1.7-1.7H1.7C0.8,0,0,0.8,0,1.7V5l0,0.7l4.3,4.3l6.7,0
	l-0.6,0.6l-0.5,0.5v7.6l0,0.7l7.2,7.3l0.5,0.5h3l2.7,5.4v9.8l0,0.7l3.4,3.5v2.5c0,0.7,0.4,1.3,1,1.6C28,51,28.2,51,28.4,51
	c0.4,0,0.9-0.2,1.2-0.5l6.4-6.6c0.5-0.5,0.6-1.2,0.4-1.9c-0.3-0.6-0.9-1.1-1.6-1.1h-1.5v-1.1l2.8-2.8l0.5-0.5v-6.8l2.9-3l0.5-0.5
	v-2.4h5l0.7,0l2.4-2.5c1.2-1.2,1.9-2.9,1.9-4.6v-2.8C50,12.2,49.3,10.5,48.1,9.3z M46.7,16.7c0,0.9-0.3,1.7-0.9,2.3l-1.5,1.5h-5.9
	c-0.9,0-1.7,0.8-1.7,1.7v2.6l-2.9,3l-0.5,0.5v6.8L30.5,38L30,38.5v4.1c0,0.7,0.5,1.4,1.1,1.6L30,45.4l-3.4-3.5v-9.5l0-0.4L23,25
	c-0.3-0.6-0.9-0.9-1.5-0.9h-2.7l-5.8-5.9v-5.5l2.5-2.5l1.6-1.7l1.3-1.4c0.2-0.2,0.6-0.4,0.9-0.4l11,0c0,0,0,0,0,0
	c0.3,0,0.7,0.1,0.9,0.4l2,2c0.6,0.6,1.5,1,2.4,1h8.6l1.5,1.6c0.6,0.6,0.9,1.4,0.9,2.3V16.7z"/>
</svg>
